<?xml version="1.0" encoding="UTF-8" ?>
<!DOCTYPE svg PUBLIC "-//W3C//DTD SVG 1.1//EN" "http://www.w3.org/Graphics/SVG/1.1/DTD/svg11.dtd">
<svg width="357pt" height="292pt" viewBox="0 0 357 292" version="1.1" xmlns="http://www.w3.org/2000/svg">
<path fill="#e7e7e7" opacity="1.00" d=" M 0.00 0.00 L 157.18 0.00 L 155.68 0.61 C 151.64 1.11 147.59 1.60 143.53 1.89 C 141.03 1.51 138.53 1.11 135.99 1.11 C 91.98 1.25 47.96 1.09 3.95 1.20 C 2.07 0.89 0.80 2.02 0.00 3.60 L 0.00 0.00 Z" />
<path fill="#636363" opacity="1.00" d=" M 157.18 0.00 L 257.45 0.00 L 255.92 0.65 C 251.64 1.02 247.33 0.96 243.04 1.00 C 218.36 1.01 193.68 0.99 169.00 1.00 C 164.56 1.07 160.11 1.05 155.68 0.61 L 157.18 0.00 Z" />
<path fill="#ffffff" opacity="1.00" d=" M 257.45 0.00 L 357.00 0.00 L 357.00 99.98 C 354.57 95.61 350.98 92.06 347.62 88.42 C 343.31 84.05 339.24 79.39 334.37 75.63 C 329.18 71.52 323.53 67.60 320.05 61.82 C 315.42 54.13 314.36 44.89 309.87 37.14 C 303.02 25.18 293.85 14.06 281.56 7.43 C 273.71 3.25 264.85 0.69 255.92 0.65 L 257.45 0.00 Z" />
<path fill="#ffffff" opacity="1.00" d=" M 0.00 3.60 C 0.80 2.02 2.07 0.89 3.95 1.20 C 47.96 1.09 91.98 1.25 135.99 1.11 C 138.53 1.11 141.03 1.51 143.53 1.89 C 117.87 4.80 91.80 6.83 67.09 14.87 C 51.22 20.02 35.82 28.88 26.45 43.08 C 27.22 49.72 27.34 56.88 23.87 62.84 C 17.82 73.69 4.16 78.26 0.01 90.47 L 0.00 89.22 L 0.00 3.60 Z" />
<path fill="#000000" opacity="1.00" d=" M 143.53 1.89 C 147.59 1.60 151.64 1.11 155.68 0.61 C 160.11 1.05 164.56 1.07 169.00 1.00 C 193.68 0.99 218.36 1.01 243.04 1.00 C 247.33 0.96 251.64 1.02 255.92 0.65 C 264.85 0.69 273.71 3.25 281.56 7.43 C 293.85 14.06 303.02 25.18 309.87 37.14 C 314.36 44.89 315.42 54.13 320.05 61.82 C 323.53 67.60 329.18 71.52 334.37 75.63 C 339.24 79.39 343.31 84.05 347.62 88.42 C 350.98 92.06 354.57 95.61 357.00 99.98 L 357.00 133.95 C 354.18 135.23 353.49 138.39 351.99 140.80 C 345.36 152.45 334.38 160.67 326.70 171.51 C 320.91 179.65 318.26 189.48 312.90 197.86 C 309.60 203.09 304.91 207.21 300.36 211.32 C 286.08 223.60 270.20 233.98 253.40 242.47 C 239.77 249.51 224.61 252.89 210.95 259.87 C 200.50 265.08 190.77 271.82 179.73 275.80 C 159.53 282.56 137.66 282.79 117.79 290.74 C 116.29 291.41 114.65 291.65 113.01 291.61 C 93.01 291.56 73.01 291.61 53.00 291.59 C 50.20 291.75 47.93 289.88 45.50 288.77 C 35.06 283.39 24.07 277.55 17.42 267.48 C 12.03 259.43 11.93 249.32 12.26 239.99 C 13.25 219.55 17.76 199.42 18.32 178.94 C 18.42 169.40 18.37 159.42 14.44 150.53 C 10.49 141.19 3.01 133.67 0.00 123.90 L 0.00 89.22 L 0.01 90.47 C 4.16 78.26 17.82 73.69 23.87 62.84 C 27.34 56.88 27.22 49.72 26.45 43.08 C 35.82 28.88 51.22 20.02 67.09 14.87 C 91.80 6.83 117.87 4.80 143.53 1.89 M 131.99 11.61 C 121.57 12.34 109.78 10.55 100.88 17.26 C 93.82 16.99 86.65 16.92 79.74 18.59 C 61.81 22.60 46.10 33.55 33.89 47.00 C 35.54 52.92 35.96 59.54 33.00 65.14 C 27.51 75.95 14.24 79.87 8.84 90.74 C 5.27 99.66 4.90 109.87 7.95 118.99 C 10.48 127.12 15.55 134.07 19.41 141.57 C 23.41 149.09 24.69 157.67 25.55 166.04 C 28.09 196.14 19.91 225.88 20.91 255.96 C 24.65 264.31 31.20 271.26 38.80 276.28 C 49.47 283.39 62.40 286.25 75.08 286.57 C 94.65 287.45 113.94 282.90 132.57 277.35 C 143.48 274.19 154.32 270.54 165.59 268.87 C 170.08 268.23 174.70 270.51 179.03 268.57 C 187.14 265.54 194.58 261.05 202.18 256.97 C 221.25 246.54 241.75 239.06 260.92 228.83 C 273.10 222.27 284.92 214.61 294.40 204.43 C 308.27 189.59 316.45 170.65 329.00 154.82 C 326.07 153.78 323.19 159.44 321.27 155.88 C 322.40 154.52 324.40 154.38 325.91 153.58 C 337.00 149.29 346.14 139.73 348.87 128.02 C 354.55 105.51 338.88 79.70 315.76 75.65 C 317.67 75.11 319.55 74.46 321.41 73.75 C 319.65 71.16 317.33 69.02 315.51 66.47 C 306.05 53.54 301.74 37.57 291.80 24.94 C 287.65 19.76 282.53 15.10 276.19 12.84 C 265.32 8.83 253.58 8.65 242.15 7.95 C 205.40 6.18 168.62 8.70 131.99 11.61 Z" />
<path fill="#ffffff" opacity="1.00" d=" M 131.99 11.61 C 168.62 8.70 205.40 6.18 242.15 7.95 C 253.58 8.65 265.32 8.83 276.19 12.84 C 282.53 15.10 287.65 19.76 291.80 24.94 C 301.74 37.57 306.05 53.54 315.51 66.47 C 317.33 69.02 319.65 71.16 321.41 73.75 C 319.55 74.46 317.67 75.11 315.76 75.65 C 338.88 79.70 354.55 105.51 348.87 128.02 C 346.14 139.73 337.00 149.29 325.91 153.58 C 324.40 154.38 322.40 154.52 321.27 155.88 C 323.19 159.44 326.07 153.78 329.00 154.82 C 316.45 170.65 308.27 189.59 294.40 204.43 C 284.92 214.61 273.10 222.27 260.92 228.83 C 241.75 239.06 221.25 246.54 202.18 256.97 C 194.58 261.05 187.14 265.54 179.03 268.57 C 174.70 270.51 170.08 268.23 165.59 268.87 C 154.32 270.54 143.48 274.19 132.57 277.35 C 113.94 282.90 94.65 287.45 75.08 286.57 C 62.40 286.25 49.47 283.39 38.80 276.28 C 31.20 271.26 24.65 264.31 20.91 255.96 C 19.91 225.88 28.09 196.14 25.55 166.04 C 24.69 157.67 23.41 149.09 19.41 141.57 C 15.55 134.07 10.48 127.12 7.95 118.99 C 4.90 109.87 5.27 99.66 8.84 90.74 C 14.24 79.87 27.51 75.95 33.00 65.14 C 35.96 59.54 35.54 52.92 33.89 47.00 C 46.10 33.55 61.81 22.60 79.74 18.59 C 86.65 16.92 93.82 16.99 100.88 17.26 C 109.78 10.55 121.57 12.34 131.99 11.61 M 106.04 17.10 C 108.84 19.58 112.59 18.01 115.92 18.54 C 139.79 21.32 163.25 14.41 186.97 13.19 C 203.87 11.76 220.91 15.65 236.22 22.74 C 251.99 30.00 265.75 40.72 279.94 50.55 C 274.44 42.87 266.53 37.36 258.63 32.41 C 245.83 24.71 232.40 17.72 217.93 13.78 C 206.24 10.58 193.95 10.26 181.93 11.29 C 156.63 12.94 131.49 19.83 106.04 17.10 M 117.02 28.58 C 106.51 28.83 96.31 26.04 85.96 24.77 C 81.87 24.48 77.14 23.97 73.72 26.72 C 71.96 28.07 71.50 30.35 71.01 32.38 C 73.97 30.13 76.73 26.07 80.94 26.74 C 100.46 32.21 121.04 31.15 140.96 28.90 C 157.27 27.13 173.51 23.83 189.99 24.36 C 213.84 24.82 237.80 32.57 256.49 47.57 C 260.74 51.44 264.51 57.42 271.12 56.66 C 248.95 32.56 215.35 20.99 183.02 22.03 C 160.88 22.74 139.26 29.23 117.02 28.58 M 173.83 35.86 C 173.60 36.43 173.13 37.57 172.89 38.14 C 175.32 37.78 177.60 36.86 179.74 35.68 C 192.83 35.35 206.03 35.72 218.86 38.54 C 233.94 41.79 249.44 48.14 258.97 60.84 C 252.52 47.11 237.53 40.05 223.49 36.68 C 207.22 32.92 190.24 33.13 173.83 35.86 M 67.78 48.76 C 68.81 53.39 62.64 58.40 67.26 62.09 C 67.89 58.23 68.57 54.23 70.88 50.96 C 74.84 44.90 82.04 42.03 88.92 40.83 C 102.38 38.75 116.02 41.20 128.98 44.86 C 122.62 39.49 113.97 38.49 105.99 37.85 C 92.54 36.90 78.32 40.01 67.78 48.76 M 172.13 46.97 C 172.05 51.44 172.03 55.92 172.20 60.39 C 176.73 57.39 171.56 51.18 174.65 47.40 C 177.14 44.43 180.53 42.29 182.64 38.98 C 181.95 38.62 180.57 37.89 179.88 37.52 C 177.43 40.78 174.92 43.99 172.13 46.97 M 117.95 50.35 C 119.31 51.20 121.09 51.74 121.79 53.34 C 124.49 58.92 121.89 65.77 125.24 71.15 C 125.44 65.73 125.28 60.30 125.32 54.88 C 123.54 52.70 121.96 50.37 120.04 48.31 C 119.34 48.99 118.64 49.67 117.95 50.35 M 179.08 67.13 C 173.36 70.78 167.83 76.10 166.53 82.99 C 168.24 89.41 175.42 91.12 179.65 95.42 C 195.76 86.21 214.49 81.03 233.11 82.55 C 239.18 83.17 244.83 86.37 251.04 85.85 C 253.69 85.83 255.84 84.13 257.89 82.66 C 256.69 76.96 253.48 71.75 248.94 68.10 C 241.60 62.15 232.15 59.44 222.89 58.42 C 207.91 57.12 192.10 59.20 179.08 67.13 M 79.30 68.58 C 73.64 70.27 68.96 74.73 67.36 80.47 C 81.97 87.53 99.03 83.26 114.10 88.64 C 116.87 89.68 119.55 91.18 121.50 93.45 C 121.86 97.87 121.55 102.33 121.64 106.77 C 105.63 115.86 92.18 128.78 76.09 137.72 C 83.38 135.44 90.17 131.85 97.25 129.03 C 97.53 130.95 97.53 133.56 99.79 134.30 C 102.47 134.51 104.60 132.58 106.63 131.13 C 109.07 138.12 114.78 143.46 121.09 147.05 C 125.11 149.23 130.18 150.86 134.55 148.72 C 137.91 147.08 139.35 143.39 140.40 140.05 C 139.29 139.39 138.12 138.87 136.88 138.51 C 133.92 139.93 131.50 143.14 127.85 142.42 C 121.08 137.68 114.32 131.70 112.13 123.39 C 116.59 117.52 124.60 115.84 129.03 110.10 C 129.23 103.98 129.08 97.86 129.06 91.74 C 134.23 90.12 141.15 89.06 142.49 82.74 C 138.32 78.44 132.54 82.27 127.67 82.81 C 124.87 77.17 119.45 73.49 113.75 71.20 C 102.94 66.92 90.59 65.09 79.30 68.58 M 261.63 76.58 C 265.63 77.24 270.07 77.50 273.05 80.63 C 270.17 80.78 267.04 80.30 264.62 82.25 C 269.49 82.54 277.24 83.64 278.72 77.36 C 273.86 78.02 269.39 75.90 264.85 74.61 C 263.76 75.24 262.68 75.89 261.63 76.58 M 31.93 78.66 C 23.60 83.05 16.27 89.82 12.55 98.59 C 8.31 108.31 9.03 119.87 13.64 129.31 C 20.14 134.56 28.65 136.24 35.94 140.11 C 34.94 138.77 33.95 137.42 32.71 136.31 C 28.27 132.17 21.29 132.44 17.16 127.85 C 12.22 121.92 10.24 113.58 12.02 106.06 C 14.86 94.22 24.72 84.92 35.87 80.73 C 45.22 80.01 55.44 84.04 64.02 78.68 C 53.35 77.06 42.62 80.60 31.93 78.66 M 291.71 80.45 C 300.86 80.63 310.01 80.47 319.17 80.56 C 322.18 84.45 328.79 82.17 330.78 87.07 C 336.94 97.51 339.87 109.91 339.26 121.99 C 338.95 128.40 337.39 135.13 333.13 140.11 C 328.51 145.52 319.34 142.86 315.66 149.56 C 323.10 148.15 330.29 144.92 336.15 140.11 C 339.87 131.99 339.47 122.81 340.11 114.09 C 340.19 108.48 340.17 102.87 339.81 97.27 C 335.23 91.90 332.42 84.73 326.01 81.14 C 320.55 77.77 314.01 79.16 307.98 78.86 C 302.59 78.90 296.49 77.22 291.71 80.45 M 261.24 85.96 C 263.48 86.51 265.71 87.12 267.93 87.72 C 269.66 83.72 262.95 83.41 261.24 85.96 M 252.01 99.08 C 245.84 100.16 238.96 100.05 233.63 96.36 C 228.01 92.90 223.84 86.32 216.63 86.13 C 216.64 92.91 220.81 98.95 226.40 102.48 C 233.22 107.33 241.92 108.38 250.07 107.76 C 257.97 107.15 265.30 103.81 272.25 100.24 C 278.14 97.24 284.18 93.91 290.92 93.48 C 298.41 92.82 306.61 93.50 312.79 98.21 C 319.08 103.01 321.56 111.36 321.44 118.99 C 321.32 123.77 318.20 127.63 316.89 132.06 C 316.03 134.78 316.83 137.61 317.50 140.28 C 324.11 135.20 328.55 127.38 329.14 119.03 C 329.83 108.44 325.17 97.61 316.97 90.87 C 310.94 85.72 302.59 84.49 294.94 85.39 C 279.84 87.24 266.86 96.28 252.01 99.08 M 35.94 88.15 C 32.67 90.37 28.87 91.56 25.44 93.49 C 24.37 94.25 22.84 94.92 22.65 96.38 C 21.58 102.82 21.01 109.43 21.81 115.94 C 22.33 119.21 23.26 122.86 26.06 124.94 C 28.25 126.51 31.03 126.16 33.49 125.58 C 29.63 124.38 25.38 122.35 24.31 118.05 C 22.61 111.11 24.09 103.87 24.75 96.88 C 27.86 93.40 33.32 93.79 36.60 90.61 C 37.41 89.72 36.21 88.95 35.94 88.15 M 37.82 96.82 C 33.66 98.51 30.84 102.48 30.14 106.86 C 39.15 106.39 48.02 101.68 57.09 104.05 C 61.57 105.24 63.61 109.90 63.94 114.16 C 70.87 114.03 78.24 114.91 84.79 112.15 C 88.52 110.66 90.03 106.56 89.98 102.81 C 88.64 102.34 87.37 101.37 85.87 101.64 C 82.06 102.89 79.19 106.07 75.19 106.91 C 71.31 101.40 64.81 98.62 58.56 96.75 C 51.86 94.96 44.39 94.12 37.82 96.82 M 289.34 99.35 C 288.35 101.68 288.35 104.45 286.62 106.43 C 282.55 111.41 276.76 114.52 271.12 117.39 C 258.11 123.68 244.32 128.11 230.56 132.42 C 212.81 137.76 195.01 142.95 176.96 147.17 C 157.62 151.59 137.90 155.13 118.00 154.85 C 106.39 154.84 94.66 153.31 83.75 149.20 C 73.84 145.46 64.68 139.28 58.21 130.82 C 55.07 124.92 57.77 117.79 55.28 111.68 C 54.87 110.16 52.97 110.14 51.85 109.43 C 48.62 111.59 49.93 115.77 49.09 118.98 C 47.58 122.90 44.14 125.78 42.94 129.86 C 39.71 140.24 39.06 151.19 38.84 162.00 C 39.10 174.83 40.14 187.81 43.96 200.14 C 45.71 205.50 47.93 211.10 52.49 214.71 C 57.15 218.42 62.84 220.50 68.47 222.24 C 82.31 226.22 96.74 227.56 111.06 228.40 C 134.29 229.32 157.71 228.94 180.66 224.96 C 208.77 220.16 236.19 208.72 257.59 189.60 C 268.08 180.14 275.63 168.10 283.46 156.49 C 287.43 150.78 291.47 144.95 296.91 140.53 C 296.41 138.39 295.12 136.16 296.00 133.95 C 296.98 131.09 298.27 128.35 299.24 125.49 C 304.62 127.13 311.19 129.04 316.13 125.28 C 315.35 123.92 314.90 122.33 313.73 121.24 C 308.97 117.16 301.26 118.95 297.07 114.02 C 295.92 110.15 296.47 105.89 294.84 102.14 C 293.95 100.06 291.55 98.79 289.34 99.35 M 170.03 115.97 C 170.23 117.70 170.13 120.07 172.15 120.79 C 176.21 122.60 181.00 120.95 185.07 122.80 C 187.25 123.94 187.52 126.75 187.55 128.95 C 187.46 133.27 180.75 133.48 181.13 138.00 C 180.38 141.59 185.61 142.04 188.02 141.20 C 193.66 138.67 194.93 131.59 194.92 126.04 C 194.67 123.41 195.44 119.87 192.76 118.24 C 186.30 113.64 177.27 112.52 170.03 115.97 M 196.40 114.07 C 196.35 116.64 196.35 119.22 196.37 121.79 C 206.57 125.71 217.84 121.22 228.13 124.91 C 226.99 123.62 225.84 122.19 224.08 121.77 C 216.47 120.01 208.48 123.35 200.98 120.96 C 198.08 120.07 197.65 116.99 199.24 114.70 C 198.30 114.48 197.35 114.27 196.40 114.07 M 156.89 127.83 C 153.33 128.60 149.90 131.04 149.52 134.92 C 158.11 138.59 168.32 131.77 176.12 138.17 C 177.54 135.39 177.91 132.29 177.73 129.20 C 171.10 126.87 163.76 126.24 156.89 127.83 M 239.78 215.71 C 219.34 225.47 199.20 236.54 177.01 241.89 C 165.53 244.81 153.64 245.30 141.89 246.34 C 121.29 247.62 100.23 248.54 80.01 243.53 C 70.16 241.14 60.75 236.23 54.34 228.22 C 56.92 233.46 60.78 238.12 65.74 241.26 C 74.71 247.00 85.54 248.52 95.95 249.30 C 118.34 250.61 140.78 249.10 163.05 246.80 C 181.72 245.05 199.59 238.56 216.36 230.43 C 231.74 223.12 246.29 214.16 261.90 207.33 C 254.18 209.09 246.95 212.42 239.78 215.71 M 280.08 207.42 C 249.66 224.81 216.81 237.85 182.98 246.93 C 156.90 253.93 129.99 257.48 103.03 258.52 C 89.59 258.87 75.96 258.52 62.87 255.15 C 54.56 252.93 46.19 249.21 40.63 242.41 C 37.19 239.35 42.41 233.31 37.73 231.06 C 37.47 235.03 37.61 239.02 37.57 243.00 C 43.32 250.21 51.67 254.97 60.53 257.24 C 74.73 260.94 89.56 260.46 104.10 260.01 C 140.76 258.81 177.20 252.21 212.08 240.91 C 231.46 234.49 250.48 226.64 267.95 215.99 C 272.14 213.36 276.41 210.77 280.08 207.42 M 97.82 237.16 C 104.87 237.09 111.92 237.01 118.96 237.21 C 132.07 237.44 145.36 238.38 158.28 235.67 C 145.22 235.05 132.11 235.60 119.04 235.62 C 112.02 235.64 104.33 233.69 97.82 237.16 Z" />
<path fill="#000000" opacity="1.00" d=" M 106.04 17.10 C 131.49 19.83 156.63 12.94 181.93 11.29 C 193.95 10.26 206.24 10.58 217.93 13.78 C 232.40 17.72 245.83 24.71 258.63 32.41 C 266.53 37.36 274.44 42.87 279.94 50.55 C 265.75 40.72 251.99 30.00 236.22 22.74 C 220.91 15.65 203.87 11.76 186.97 13.19 C 163.25 14.41 139.79 21.32 115.92 18.54 C 112.59 18.01 108.84 19.58 106.04 17.10 Z" />
<path fill="#000000" opacity="1.00" d=" M 117.02 28.58 C 139.26 29.23 160.88 22.74 183.02 22.03 C 215.35 20.99 248.95 32.56 271.12 56.66 C 264.51 57.42 260.74 51.44 256.49 47.57 C 237.80 32.57 213.84 24.82 189.99 24.36 C 173.51 23.83 157.27 27.13 140.96 28.90 C 121.04 31.15 100.46 32.21 80.94 26.74 C 76.73 26.07 73.97 30.13 71.01 32.38 C 71.50 30.35 71.96 28.07 73.72 26.72 C 77.14 23.97 81.87 24.48 85.96 24.77 C 96.31 26.04 106.51 28.83 117.02 28.58 Z" />
<path fill="#000000" opacity="1.00" d=" M 173.83 35.86 C 190.24 33.13 207.22 32.92 223.49 36.68 C 237.53 40.05 252.52 47.11 258.97 60.84 C 249.44 48.14 233.94 41.79 218.86 38.54 C 206.03 35.72 192.83 35.35 179.74 35.68 C 177.60 36.86 175.32 37.78 172.89 38.14 C 173.13 37.57 173.60 36.43 173.83 35.86 Z" />
<path fill="#000000" opacity="1.00" d=" M 67.78 48.76 C 78.32 40.01 92.54 36.90 105.99 37.85 C 113.97 38.49 122.62 39.49 128.98 44.86 C 116.02 41.20 102.38 38.75 88.92 40.83 C 82.04 42.03 74.84 44.90 70.88 50.96 C 68.57 54.23 67.89 58.23 67.26 62.09 C 62.64 58.40 68.81 53.39 67.78 48.76 Z" />
<path fill="#000000" opacity="1.00" d=" M 172.13 46.97 C 174.92 43.99 177.43 40.78 179.88 37.52 C 180.57 37.89 181.95 38.62 182.64 38.98 C 180.53 42.29 177.14 44.43 174.65 47.40 C 171.56 51.18 176.73 57.39 172.20 60.39 C 172.03 55.92 172.05 51.44 172.13 46.97 Z" />
<path fill="#000000" opacity="1.00" d=" M 117.95 50.35 C 118.64 49.67 119.34 48.99 120.04 48.31 C 121.96 50.37 123.54 52.70 125.32 54.88 C 125.28 60.30 125.44 65.73 125.24 71.15 C 121.89 65.77 124.49 58.92 121.79 53.34 C 121.09 51.74 119.31 51.20 117.95 50.35 Z" />
<path fill="#000000" opacity="1.00" d=" M 179.08 67.13 C 192.10 59.20 207.91 57.12 222.89 58.42 C 232.15 59.44 241.60 62.15 248.94 68.10 C 253.48 71.75 256.69 76.96 257.89 82.66 C 255.84 84.13 253.69 85.83 251.04 85.85 C 244.83 86.37 239.18 83.17 233.11 82.55 C 214.49 81.03 195.76 86.21 179.65 95.42 C 175.42 91.12 168.24 89.41 166.53 82.99 C 167.83 76.10 173.36 70.78 179.08 67.13 M 181.54 75.53 C 178.63 77.52 176.88 80.90 177.36 84.46 C 182.85 86.68 188.00 83.10 192.59 80.48 C 197.02 77.80 202.17 76.16 207.39 76.79 C 206.22 73.06 206.52 68.81 204.15 65.52 C 196.58 68.75 188.30 70.66 181.54 75.53 M 237.03 74.97 C 240.81 76.22 244.78 78.79 248.86 77.45 C 246.11 74.40 240.16 70.23 237.03 74.97 Z" />
<path fill="#ffffff" opacity="1.00" d=" M 181.54 75.53 C 188.30 70.66 196.58 68.75 204.15 65.52 C 206.52 68.81 206.22 73.06 207.39 76.79 C 202.17 76.16 197.02 77.80 192.59 80.48 C 188.00 83.10 182.85 86.68 177.36 84.46 C 176.88 80.90 178.63 77.52 181.54 75.53 Z" />
<path fill="#000000" opacity="1.00" d=" M 79.30 68.58 C 90.59 65.09 102.94 66.92 113.75 71.20 C 119.45 73.49 124.87 77.17 127.67 82.81 C 132.54 82.27 138.32 78.44 142.49 82.74 C 141.15 89.06 134.23 90.12 129.06 91.74 C 129.08 97.86 129.23 103.98 129.03 110.10 C 124.60 115.84 116.59 117.52 112.13 123.39 C 114.32 131.70 121.08 137.68 127.85 142.42 C 131.50 143.14 133.92 139.93 136.88 138.51 C 138.12 138.87 139.29 139.39 140.40 140.05 C 139.35 143.39 137.91 147.08 134.55 148.72 C 130.18 150.86 125.11 149.23 121.09 147.05 C 114.78 143.46 109.07 138.12 106.63 131.13 C 104.60 132.58 102.47 134.51 99.79 134.30 C 97.53 133.56 97.53 130.95 97.25 129.03 C 90.17 131.85 83.38 135.44 76.09 137.72 C 92.18 128.78 105.63 115.86 121.64 106.77 C 121.55 102.33 121.86 97.87 121.50 93.45 C 119.55 91.18 116.87 89.68 114.10 88.64 C 99.03 83.26 81.97 87.53 67.36 80.47 C 68.96 74.73 73.64 70.27 79.30 68.58 M 80.16 76.55 C 85.99 76.09 92.67 79.16 97.85 75.38 C 92.00 75.82 85.33 72.75 80.16 76.55 Z" />
<path fill="#ffffff" opacity="1.00" d=" M 237.03 74.97 C 240.16 70.23 246.11 74.40 248.86 77.45 C 244.78 78.79 240.81 76.22 237.03 74.97 Z" />
<path fill="#ffffff" opacity="1.00" d=" M 80.16 76.55 C 85.33 72.75 92.00 75.82 97.85 75.38 C 92.67 79.16 85.99 76.09 80.16 76.55 Z" />
<path fill="#000000" opacity="1.00" d=" M 261.63 76.58 C 262.68 75.89 263.76 75.24 264.85 74.61 C 269.39 75.90 273.86 78.02 278.72 77.36 C 277.24 83.64 269.49 82.54 264.62 82.25 C 267.04 80.30 270.17 80.78 273.05 80.63 C 270.07 77.50 265.63 77.24 261.63 76.58 Z" />
<path fill="#000000" opacity="1.00" d=" M 31.93 78.66 C 42.62 80.60 53.35 77.06 64.02 78.68 C 55.44 84.04 45.22 80.01 35.87 80.73 C 24.72 84.92 14.86 94.22 12.02 106.06 C 10.24 113.58 12.22 121.92 17.16 127.85 C 21.29 132.44 28.27 132.17 32.71 136.31 C 33.95 137.42 34.94 138.77 35.94 140.11 C 28.65 136.24 20.14 134.56 13.64 129.31 C 9.03 119.87 8.31 108.31 12.55 98.59 C 16.27 89.82 23.60 83.05 31.93 78.66 Z" />
<path fill="#000000" opacity="1.00" d=" M 291.71 80.45 C 296.49 77.22 302.59 78.90 307.98 78.86 C 314.01 79.16 320.55 77.77 326.01 81.14 C 332.42 84.73 335.23 91.90 339.81 97.27 C 340.17 102.87 340.19 108.48 340.11 114.09 C 339.47 122.81 339.87 131.99 336.15 140.11 C 330.29 144.92 323.10 148.15 315.66 149.56 C 319.34 142.86 328.51 145.52 333.13 140.11 C 337.39 135.13 338.95 128.40 339.26 121.99 C 339.87 109.91 336.94 97.51 330.78 87.07 C 328.79 82.17 322.18 84.45 319.17 80.56 C 310.01 80.47 300.86 80.63 291.71 80.45 Z" />
<path fill="#000000" opacity="1.00" d=" M 261.24 85.96 C 262.95 83.41 269.66 83.72 267.93 87.72 C 265.71 87.12 263.48 86.51 261.24 85.96 Z" />
<path fill="#000000" opacity="1.00" d=" M 252.01 99.08 C 266.86 96.28 279.84 87.24 294.94 85.39 C 302.59 84.49 310.94 85.72 316.97 90.87 C 325.17 97.61 329.83 108.44 329.14 119.03 C 328.55 127.38 324.11 135.20 317.50 140.28 C 316.83 137.61 316.03 134.78 316.89 132.06 C 318.20 127.63 321.32 123.77 321.44 118.99 C 321.56 111.36 319.08 103.01 312.79 98.21 C 306.61 93.50 298.41 92.82 290.92 93.48 C 284.18 93.91 278.14 97.24 272.25 100.24 C 265.30 103.81 257.97 107.15 250.07 107.76 C 241.92 108.38 233.22 107.33 226.40 102.48 C 220.81 98.95 216.64 92.91 216.63 86.13 C 223.84 86.32 228.01 92.90 233.63 96.36 C 238.96 100.05 245.84 100.16 252.01 99.08 Z" />
<path fill="#000000" opacity="1.00" d=" M 35.94 88.15 C 36.21 88.95 37.41 89.72 36.60 90.61 C 33.32 93.79 27.86 93.40 24.75 96.88 C 24.09 103.87 22.61 111.11 24.31 118.05 C 25.38 122.35 29.63 124.38 33.49 125.58 C 31.03 126.16 28.25 126.51 26.06 124.94 C 23.26 122.86 22.33 119.21 21.81 115.94 C 21.01 109.43 21.58 102.82 22.65 96.38 C 22.84 94.92 24.37 94.25 25.44 93.49 C 28.87 91.56 32.67 90.37 35.94 88.15 Z" />
<path fill="#000000" opacity="1.00" d=" M 37.82 96.82 C 44.39 94.12 51.86 94.96 58.56 96.75 C 64.81 98.62 71.31 101.40 75.19 106.91 C 79.19 106.07 82.06 102.89 85.87 101.64 C 87.37 101.37 88.64 102.34 89.98 102.81 C 90.03 106.56 88.52 110.66 84.79 112.15 C 78.24 114.91 70.87 114.03 63.94 114.16 C 63.61 109.90 61.57 105.24 57.09 104.05 C 48.02 101.68 39.15 106.39 30.14 106.86 C 30.84 102.48 33.66 98.51 37.82 96.82 Z" />
<path fill="#000000" opacity="1.00" d=" M 289.34 99.35 C 291.55 98.79 293.95 100.06 294.84 102.14 C 296.47 105.89 295.92 110.15 297.07 114.02 C 301.26 118.95 308.97 117.16 313.73 121.24 C 314.90 122.33 315.35 123.92 316.13 125.28 C 311.19 129.04 304.62 127.13 299.24 125.49 C 298.27 128.35 296.98 131.09 296.00 133.95 C 295.12 136.16 296.41 138.39 296.91 140.53 C 291.47 144.95 287.43 150.78 283.46 156.49 C 275.63 168.10 268.08 180.14 257.59 189.60 C 236.19 208.72 208.77 220.16 180.66 224.96 C 157.71 228.94 134.29 229.32 111.06 228.40 C 96.74 227.56 82.31 226.22 68.47 222.24 C 62.84 220.50 57.15 218.42 52.49 214.71 C 47.93 211.10 45.71 205.50 43.96 200.14 C 40.14 187.81 39.10 174.83 38.84 162.00 C 39.06 151.19 39.71 140.24 42.94 129.86 C 44.14 125.78 47.58 122.90 49.09 118.98 C 49.93 115.77 48.62 111.59 51.85 109.43 C 52.97 110.14 54.87 110.16 55.28 111.68 C 57.77 117.79 55.07 124.92 58.21 130.82 C 64.68 139.28 73.84 145.46 83.75 149.20 C 94.66 153.31 106.39 154.84 118.00 154.85 C 137.90 155.13 157.62 151.59 176.96 147.17 C 195.01 142.95 212.81 137.76 230.56 132.42 C 244.32 128.11 258.11 123.68 271.12 117.39 C 276.76 114.52 282.55 111.41 286.62 106.43 C 288.35 104.45 288.35 101.68 289.34 99.35 M 256.06 132.87 C 255.84 138.43 257.22 144.38 254.56 149.56 C 265.78 145.78 277.96 142.26 286.29 133.34 C 290.78 128.72 290.97 121.59 287.89 116.15 C 278.00 123.03 266.55 127.07 256.06 132.87 M 202.03 149.63 C 203.40 155.15 204.14 160.81 205.64 166.31 C 216.74 160.81 229.93 160.44 240.26 153.26 C 245.72 149.56 248.37 142.99 248.61 136.57 C 232.85 140.10 217.65 145.64 202.03 149.63 M 50.39 144.08 C 51.42 142.18 53.63 139.22 51.15 137.54 C 49.55 139.46 49.06 141.86 50.39 144.08 M 53.28 162.08 C 53.21 165.71 56.79 167.47 59.76 168.38 C 58.48 162.12 60.74 156.04 61.48 149.89 C 61.92 147.43 60.30 145.42 58.69 143.79 C 56.95 149.89 53.53 155.65 53.28 162.08 M 255.67 162.65 C 252.67 166.64 254.02 171.87 256.08 175.95 C 262.05 175.07 264.70 169.09 267.69 164.62 C 270.19 160.36 274.42 157.36 276.62 152.91 C 277.69 151.42 276.21 150.25 275.18 149.41 C 269.03 154.33 260.52 156.13 255.67 162.65 M 69.19 151.46 C 66.53 157.98 67.97 165.02 69.34 171.65 C 70.88 171.60 72.55 171.09 74.00 171.87 C 76.18 172.49 78.80 174.99 80.65 172.46 C 79.66 171.14 77.99 169.82 78.69 167.94 C 80.26 164.56 82.92 161.58 82.94 157.64 C 77.90 156.63 73.84 153.42 69.19 151.46 M 157.14 160.85 C 157.19 165.79 157.17 170.73 157.15 175.67 C 171.07 177.95 184.25 171.90 197.81 170.14 C 196.30 165.88 196.81 161.28 195.53 157.00 C 194.90 154.76 192.47 152.79 190.09 153.63 C 179.31 156.93 167.95 157.68 157.14 160.85 M 89.98 159.15 C 90.44 164.34 88.44 169.16 86.22 173.71 C 96.20 173.72 105.98 176.97 115.99 175.66 C 115.93 171.32 115.23 166.58 117.61 162.67 C 108.27 163.20 98.93 161.75 89.98 159.15 M 125.59 162.74 C 125.94 167.27 122.38 171.05 123.32 175.65 C 132.10 175.73 140.88 175.73 149.66 175.65 C 149.55 170.66 149.65 165.68 149.58 160.69 C 141.51 160.60 133.68 164.16 125.59 162.74 M 209.28 179.57 C 209.30 182.69 209.31 185.86 210.21 188.87 C 211.86 194.97 215.88 199.97 218.80 205.47 C 229.73 197.32 242.20 191.28 252.10 181.74 C 250.63 181.03 248.70 180.67 248.04 178.97 C 246.16 174.35 247.58 168.96 245.10 164.49 C 234.44 172.12 221.74 176.01 209.28 179.57 M 164.51 192.61 C 162.97 201.31 166.90 210.03 164.80 218.63 C 180.12 218.13 194.83 213.54 209.39 209.21 C 206.72 199.79 201.40 191.23 200.00 181.44 C 188.96 187.27 176.78 190.58 164.51 192.61 M 48.98 190.04 C 50.91 193.60 52.51 197.30 53.95 201.08 C 55.01 203.23 55.89 205.89 58.25 206.93 C 57.18 202.07 55.81 197.12 52.99 192.95 C 52.09 191.49 50.60 190.55 48.98 190.04 M 63.63 194.26 C 64.38 198.76 66.84 202.71 67.76 207.16 C 66.17 207.98 64.57 208.78 62.98 209.59 C 62.01 208.99 61.01 208.42 60.00 207.88 C 60.14 208.30 60.41 209.12 60.54 209.53 C 65.38 212.64 71.28 213.38 76.74 214.82 C 73.82 207.31 71.88 197.76 63.63 194.26 M 127.26 198.18 C 128.28 205.61 130.04 212.92 130.98 220.36 C 137.98 219.94 144.99 221.08 151.98 220.38 C 154.59 220.19 156.92 218.91 158.86 217.22 C 155.28 213.66 156.98 208.34 157.28 203.94 C 157.66 200.47 158.17 195.55 154.01 194.19 C 146.18 199.52 136.20 197.99 127.26 198.18 M 78.55 199.73 C 81.87 204.57 87.70 210.19 84.66 216.53 C 89.23 215.45 92.96 219.29 97.50 218.70 C 96.19 212.35 91.46 207.04 91.67 200.33 C 87.06 202.06 82.32 195.54 78.55 199.73 M 99.16 201.62 C 102.26 206.96 105.15 212.48 106.74 218.48 C 112.07 219.84 118.36 222.54 123.46 219.13 C 120.07 213.28 121.84 205.92 118.20 200.18 C 111.90 201.22 104.77 197.60 99.16 201.62 Z" />
<path fill="#000000" opacity="1.00" d=" M 170.03 115.97 C 177.27 112.52 186.30 113.64 192.76 118.24 C 195.44 119.87 194.67 123.41 194.92 126.04 C 194.93 131.59 193.66 138.67 188.02 141.20 C 185.61 142.04 180.38 141.59 181.13 138.00 C 180.75 133.48 187.46 133.27 187.55 128.95 C 187.52 126.75 187.25 123.94 185.07 122.80 C 181.00 120.95 176.21 122.60 172.15 120.79 C 170.13 120.07 170.23 117.70 170.03 115.97 Z" />
<path fill="#000000" opacity="1.00" d=" M 196.40 114.07 C 197.35 114.27 198.30 114.48 199.24 114.70 C 197.65 116.99 198.08 120.07 200.98 120.96 C 208.48 123.35 216.47 120.01 224.08 121.77 C 225.84 122.19 226.99 123.62 228.13 124.91 C 217.84 121.22 206.57 125.71 196.37 121.79 C 196.35 119.22 196.35 116.64 196.40 114.07 Z" />
<path fill="#ffffff" opacity="1.00" d=" M 256.06 132.87 C 266.55 127.07 278.00 123.03 287.89 116.15 C 290.97 121.59 290.78 128.72 286.29 133.34 C 277.96 142.26 265.78 145.78 254.56 149.56 C 257.22 144.38 255.84 138.43 256.06 132.87 Z" />
<path fill="#ffffff" opacity="1.00" d=" M 0.00 123.90 C 3.01 133.67 10.49 141.19 14.44 150.53 C 18.37 159.42 18.42 169.40 18.32 178.94 C 17.76 199.42 13.25 219.55 12.26 239.99 C 11.93 249.32 12.03 259.43 17.42 267.48 C 24.07 277.55 35.06 283.39 45.50 288.77 C 47.93 289.88 50.20 291.75 53.00 291.59 C 73.01 291.61 93.01 291.56 113.01 291.61 C 114.65 291.65 116.29 291.41 117.79 290.74 C 137.66 282.79 159.53 282.56 179.73 275.80 C 190.77 271.82 200.50 265.08 210.95 259.87 C 224.61 252.89 239.77 249.51 253.40 242.47 C 270.20 233.98 286.08 223.60 300.36 211.32 C 304.91 207.21 309.60 203.09 312.90 197.86 C 318.26 189.48 320.91 179.65 326.70 171.51 C 334.38 160.67 345.36 152.45 351.99 140.80 C 353.49 138.39 354.18 135.23 357.00 133.95 L 357.00 157.20 C 355.61 161.29 355.53 165.68 357.00 169.77 L 357.00 183.00 C 354.72 183.78 355.42 186.77 357.00 187.92 L 357.00 199.93 C 355.38 200.09 354.99 203.11 357.00 202.67 L 357.00 230.22 C 355.55 234.29 355.56 238.67 357.00 242.74 L 357.00 292.00 L 252.96 292.00 C 250.68 291.37 248.35 290.87 245.98 290.93 C 237.98 291.01 229.97 291.06 221.97 290.93 C 219.32 290.82 216.70 291.30 214.16 292.00 L 0.00 292.00 L 0.00 123.90 Z" />
<path fill="#000000" opacity="1.00" d=" M 156.89 127.83 C 163.76 126.24 171.10 126.87 177.73 129.20 C 177.91 132.29 177.54 135.39 176.12 138.17 C 168.32 131.77 158.11 138.59 149.52 134.92 C 149.90 131.04 153.33 128.60 156.89 127.83 Z" />
<path fill="#ffffff" opacity="1.00" d=" M 202.03 149.63 C 217.65 145.64 232.85 140.10 248.61 136.57 C 248.37 142.99 245.72 149.56 240.26 153.26 C 229.93 160.44 216.74 160.81 205.64 166.31 C 204.14 160.81 203.40 155.15 202.03 149.63 Z" />
<path fill="#ffffff" opacity="1.00" d=" M 50.39 144.08 C 49.06 141.86 49.55 139.46 51.15 137.54 C 53.63 139.22 51.42 142.18 50.39 144.08 Z" />
<path fill="#ffffff" opacity="1.00" d=" M 53.28 162.08 C 53.53 155.65 56.95 149.89 58.69 143.79 C 60.30 145.42 61.92 147.43 61.48 149.89 C 60.74 156.04 58.48 162.12 59.76 168.38 C 56.79 167.47 53.21 165.71 53.28 162.08 Z" />
<path fill="#ffffff" opacity="1.00" d=" M 255.67 162.65 C 260.52 156.13 269.03 154.33 275.18 149.41 C 276.21 150.25 277.69 151.42 276.62 152.91 C 274.42 157.36 270.19 160.36 267.69 164.62 C 264.70 169.09 262.05 175.07 256.08 175.95 C 254.02 171.87 252.67 166.64 255.67 162.65 Z" />
<path fill="#ffffff" opacity="1.00" d=" M 69.19 151.46 C 73.84 153.42 77.90 156.63 82.94 157.64 C 82.92 161.58 80.26 164.56 78.69 167.94 C 77.99 169.82 79.66 171.14 80.65 172.46 C 78.80 174.99 76.18 172.49 74.00 171.87 C 72.55 171.09 70.88 171.60 69.34 171.65 C 67.97 165.02 66.53 157.98 69.19 151.46 Z" />
<path fill="#ffffff" opacity="1.00" d=" M 157.14 160.85 C 167.95 157.68 179.31 156.93 190.09 153.63 C 192.47 152.79 194.90 154.76 195.53 157.00 C 196.81 161.28 196.30 165.88 197.81 170.14 C 184.25 171.90 171.07 177.95 157.15 175.67 C 157.17 170.73 157.19 165.79 157.14 160.85 Z" />
<path fill="#cacaca" opacity="1.00" d=" M 357.00 169.77 C 355.53 165.68 355.61 161.29 357.00 157.20 L 357.00 169.77 Z" />
<path fill="#ffffff" opacity="1.00" d=" M 89.98 159.15 C 98.93 161.75 108.27 163.20 117.61 162.67 C 115.23 166.58 115.93 171.32 115.99 175.66 C 105.98 176.97 96.20 173.72 86.22 173.71 C 88.44 169.16 90.44 164.34 89.98 159.15 Z" />
<path fill="#ffffff" opacity="1.00" d=" M 125.59 162.74 C 133.68 164.16 141.51 160.60 149.58 160.69 C 149.65 165.68 149.55 170.66 149.66 175.65 C 140.88 175.73 132.10 175.73 123.32 175.65 C 122.38 171.05 125.94 167.27 125.59 162.74 Z" />
<path fill="#ffffff" opacity="1.00" d=" M 209.28 179.57 C 221.74 176.01 234.44 172.12 245.10 164.49 C 247.58 168.96 246.16 174.35 248.04 178.97 C 248.70 180.67 250.63 181.03 252.10 181.74 C 242.20 191.28 229.73 197.32 218.80 205.47 C 215.88 199.97 211.86 194.97 210.21 188.87 C 209.31 185.86 209.30 182.69 209.28 179.57 Z" />
<path fill="#ffffff" opacity="1.00" d=" M 164.51 192.61 C 176.78 190.58 188.96 187.27 200.00 181.44 C 201.40 191.23 206.72 199.79 209.39 209.21 C 194.83 213.54 180.12 218.13 164.80 218.63 C 166.90 210.03 162.97 201.31 164.51 192.61 Z" />
<path fill="#c7c7c7" opacity="1.00" d=" M 357.00 187.92 C 355.42 186.77 354.72 183.78 357.00 183.00 L 357.00 187.92 Z" />
<path fill="#ffffff" opacity="1.00" d=" M 48.98 190.04 C 50.60 190.55 52.09 191.49 52.99 192.95 C 55.81 197.12 57.18 202.07 58.25 206.93 C 55.89 205.89 55.01 203.23 53.95 201.08 C 52.51 197.30 50.91 193.60 48.98 190.04 Z" />
<path fill="#ffffff" opacity="1.00" d=" M 63.63 194.26 C 71.88 197.76 73.82 207.31 76.74 214.82 C 71.28 213.38 65.38 212.64 60.54 209.53 C 60.41 209.12 60.14 208.30 60.00 207.88 C 61.01 208.42 62.01 208.99 62.98 209.59 C 64.57 208.78 66.17 207.98 67.76 207.16 C 66.84 202.71 64.38 198.76 63.63 194.26 Z" />
<path fill="#ffffff" opacity="1.00" d=" M 127.26 198.18 C 136.20 197.99 146.18 199.52 154.01 194.19 C 158.17 195.55 157.66 200.47 157.28 203.94 C 156.98 208.34 155.28 213.66 158.86 217.22 C 156.92 218.91 154.59 220.19 151.98 220.38 C 144.99 221.08 137.98 219.94 130.98 220.36 C 130.04 212.92 128.28 205.61 127.26 198.18 Z" />
<path fill="#ffffff" opacity="1.00" d=" M 78.55 199.73 C 82.32 195.54 87.06 202.06 91.67 200.33 C 91.46 207.04 96.19 212.35 97.50 218.70 C 92.96 219.29 89.23 215.45 84.66 216.53 C 87.70 210.19 81.87 204.57 78.55 199.73 Z" />
<path fill="#ffffff" opacity="1.00" d=" M 99.16 201.62 C 104.77 197.60 111.90 201.22 118.20 200.18 C 121.84 205.92 120.07 213.28 123.46 219.13 C 118.36 222.54 112.07 219.84 106.74 218.48 C 105.15 212.48 102.26 206.96 99.16 201.62 Z" />
<path fill="#c5c5c5" opacity="1.00" d=" M 357.00 202.67 C 354.99 203.11 355.38 200.09 357.00 199.93 L 357.00 202.67 Z" />
<path fill="#000000" opacity="1.00" d=" M 239.78 215.71 C 246.95 212.42 254.18 209.09 261.90 207.33 C 246.29 214.16 231.74 223.12 216.36 230.43 C 199.59 238.56 181.72 245.05 163.05 246.80 C 140.78 249.10 118.34 250.61 95.95 249.30 C 85.54 248.52 74.71 247.00 65.74 241.26 C 60.78 238.12 56.92 233.46 54.34 228.22 C 60.75 236.23 70.16 241.14 80.01 243.53 C 100.23 248.54 121.29 247.62 141.89 246.34 C 153.64 245.30 165.53 244.81 177.01 241.89 C 199.20 236.54 219.34 225.47 239.78 215.71 Z" />
<path fill="#000000" opacity="1.00" d=" M 280.08 207.42 C 276.41 210.77 272.14 213.36 267.95 215.99 C 250.48 226.64 231.46 234.49 212.08 240.91 C 177.20 252.21 140.76 258.81 104.10 260.01 C 89.56 260.46 74.73 260.94 60.53 257.24 C 51.67 254.97 43.32 250.21 37.57 243.00 C 37.61 239.02 37.47 235.03 37.73 231.06 C 42.41 233.31 37.19 239.35 40.63 242.41 C 46.19 249.21 54.56 252.93 62.87 255.15 C 75.96 258.52 89.59 258.87 103.03 258.52 C 129.99 257.48 156.90 253.93 182.98 246.93 C 216.81 237.85 249.66 224.81 280.08 207.42 Z" />
<path fill="#cacaca" opacity="1.00" d=" M 357.00 242.74 C 355.56 238.67 355.55 234.29 357.00 230.22 L 357.00 242.74 Z" />
<path fill="#000000" opacity="1.00" d=" M 97.82 237.16 C 104.33 233.69 112.02 235.64 119.04 235.62 C 132.11 235.60 145.22 235.05 158.28 235.67 C 145.36 238.38 132.07 237.44 118.96 237.21 C 111.92 237.01 104.87 237.09 97.82 237.16 Z" />
<path fill="#cbcbcb" opacity="1.00" d=" M 214.16 292.00 C 216.70 291.30 219.32 290.82 221.97 290.93 C 229.97 291.06 237.98 291.01 245.98 290.93 C 248.35 290.87 250.68 291.37 252.96 292.00 L 214.16 292.00 Z" />
</svg>
